solid CATIA STL
  facet normal  0.000000e+00  0.000000e+00 -1.000000e+00
    outer loop
      vertex -2.000000e+02 -2.000000e+02  0.000000e+00
      vertex -2.000000e+02  2.000000e+02  0.000000e+00
      vertex  2.000000e+02 -2.000000e+02  0.000000e+00
    endloop
  endfacet
  facet normal  0.000000e+00  0.000000e+00 -1.000000e+00
    outer loop
      vertex  2.000000e+02 -2.000000e+02  0.000000e+00
      vertex -2.000000e+02  2.000000e+02  0.000000e+00
      vertex  2.000000e+02  2.000000e+02  0.000000e+00
    endloop
  endfacet
  facet normal  0.000000e+00  0.000000e+00  1.000000e+00
    outer loop
      vertex  2.000000e+02 -2.000000e+02  2.000000e+01
      vertex  1.850000e+02 -1.850000e+02  2.000000e+01
      vertex -2.000000e+02 -2.000000e+02  2.000000e+01
    endloop
  endfacet
  facet normal  0.000000e+00  0.000000e+00  1.000000e+00
    outer loop
      vertex -2.000000e+02 -2.000000e+02  2.000000e+01
      vertex  1.850000e+02 -1.850000e+02  2.000000e+01
      vertex -1.850000e+02 -1.850000e+02  2.000000e+01
    endloop
  endfacet
  facet normal  0.000000e+00  0.000000e+00  1.000000e+00
    outer loop
      vertex -2.000000e+02 -2.000000e+02  2.000000e+01
      vertex -1.850000e+02 -1.850000e+02  2.000000e+01
      vertex -2.000000e+02  2.000000e+02  2.000000e+01
    endloop
  endfacet
  facet normal  0.000000e+00  0.000000e+00  1.000000e+00
    outer loop
      vertex -2.000000e+02  2.000000e+02  2.000000e+01
      vertex -1.850000e+02 -1.850000e+02  2.000000e+01
      vertex -1.850000e+02  1.850000e+02  2.000000e+01
    endloop
  endfacet
  facet normal  0.000000e+00  -0.000000e+00  1.000000e+00
    outer loop
      vertex -2.000000e+02  2.000000e+02  2.000000e+01
      vertex -1.850000e+02  1.850000e+02  2.000000e+01
      vertex  2.000000e+02  2.000000e+02  2.000000e+01
    endloop
  endfacet
  facet normal  0.000000e+00  0.000000e+00  1.000000e+00
    outer loop
      vertex  2.000000e+02  2.000000e+02  2.000000e+01
      vertex -1.850000e+02  1.850000e+02  2.000000e+01
      vertex  1.850000e+02  1.850000e+02  2.000000e+01
    endloop
  endfacet
  facet normal  -0.000000e+00  0.000000e+00  1.000000e+00
    outer loop
      vertex  2.000000e+02  2.000000e+02  2.000000e+01
      vertex  1.850000e+02  1.850000e+02  2.000000e+01
      vertex  2.000000e+02 -2.000000e+02  2.000000e+01
    endloop
  endfacet
  facet normal  0.000000e+00  0.000000e+00  1.000000e+00
    outer loop
      vertex  2.000000e+02 -2.000000e+02  2.000000e+01
      vertex  1.850000e+02  1.850000e+02  2.000000e+01
      vertex  1.850000e+02 -1.850000e+02  2.000000e+01
    endloop
  endfacet
  facet normal  0.000000e+00  1.000000e+00  0.000000e+00
    outer loop
      vertex -2.000000e+02  2.000000e+02  2.000000e+01
      vertex  2.000000e+02  2.000000e+02  2.000000e+01
      vertex -2.000000e+02  2.000000e+02  0.000000e+00
    endloop
  endfacet
  facet normal  0.000000e+00  1.000000e+00  0.000000e+00
    outer loop
      vertex -2.000000e+02  2.000000e+02  0.000000e+00
      vertex  2.000000e+02  2.000000e+02  2.000000e+01
      vertex  2.000000e+02  2.000000e+02  0.000000e+00
    endloop
  endfacet
  facet normal -1.000000e+00  -0.000000e+00  0.000000e+00
    outer loop
      vertex -2.000000e+02 -2.000000e+02  2.000000e+01
      vertex -2.000000e+02  2.000000e+02  2.000000e+01
      vertex -2.000000e+02 -2.000000e+02  0.000000e+00
    endloop
  endfacet
  facet normal -1.000000e+00  0.000000e+00  0.000000e+00
    outer loop
      vertex -2.000000e+02 -2.000000e+02  0.000000e+00
      vertex -2.000000e+02  2.000000e+02  2.000000e+01
      vertex -2.000000e+02  2.000000e+02  0.000000e+00
    endloop
  endfacet
  facet normal  1.000000e+00  -0.000000e+00  0.000000e+00
    outer loop
      vertex  2.000000e+02  2.000000e+02  2.000000e+01
      vertex  2.000000e+02 -2.000000e+02  2.000000e+01
      vertex  2.000000e+02  2.000000e+02  0.000000e+00
    endloop
  endfacet
  facet normal  1.000000e+00  0.000000e+00  0.000000e+00
    outer loop
      vertex  2.000000e+02  2.000000e+02  0.000000e+00
      vertex  2.000000e+02 -2.000000e+02  2.000000e+01
      vertex  2.000000e+02 -2.000000e+02  0.000000e+00
    endloop
  endfacet
  facet normal  0.000000e+00 -1.000000e+00  0.000000e+00
    outer loop
      vertex  2.000000e+02 -2.000000e+02  2.000000e+01
      vertex -2.000000e+02 -2.000000e+02  2.000000e+01
      vertex  2.000000e+02 -2.000000e+02  0.000000e+00
    endloop
  endfacet
  facet normal  0.000000e+00 -1.000000e+00  0.000000e+00
    outer loop
      vertex  2.000000e+02 -2.000000e+02  0.000000e+00
      vertex -2.000000e+02 -2.000000e+02  2.000000e+01
      vertex -2.000000e+02 -2.000000e+02  0.000000e+00
    endloop
  endfacet
  facet normal  0.000000e+00  0.000000e+00  1.000000e+00
    outer loop
      vertex -1.265528e+02  0.000000e+00  1.000000e+01
      vertex -1.265528e+02 -9.407137e+01  1.000000e+01
      vertex -2.772780e+01 -9.407137e+01  1.000000e+01
    endloop
  endfacet
  facet normal  0.000000e+00  0.000000e+00  1.000000e+00
    outer loop
      vertex -1.265528e+02  0.000000e+00  1.000000e+01
      vertex -1.402967e+02  8.329005e+01  1.000000e+01
      vertex -1.402967e+02 -7.105427e-15  1.000000e+01
    endloop
  endfacet
  facet normal  -0.000000e+00  0.000000e+00  9.999999e-01
    outer loop
      vertex  9.577011e+00  8.329005e+01  1.000000e+01
      vertex -1.402967e+02  8.329005e+01  1.000000e+01
      vertex -1.265528e+02  0.000000e+00  1.000000e+01
    endloop
  endfacet
  facet normal  -0.000000e+00  0.000000e+00  1.000000e+00
    outer loop
      vertex  9.577011e+00  8.329005e+01  1.000000e+01
      vertex -1.265528e+02  0.000000e+00  1.000000e+01
      vertex -2.772780e+01 -9.407137e+01  1.000000e+01
    endloop
  endfacet
  facet normal  -0.000000e+00  0.000000e+00  1.000000e+00
    outer loop
      vertex  9.577011e+00  8.329005e+01  1.000000e+01
      vertex -2.772780e+01 -9.407137e+01  1.000000e+01
      vertex -2.772780e+01 -1.176323e+02  1.000000e+01
    endloop
  endfacet
  facet normal  0.000000e+00  0.000000e+00  1.000000e+00
    outer loop
      vertex  9.577011e+00  8.329005e+01  1.000000e+01
      vertex -2.772780e+01 -1.176323e+02  1.000000e+01
      vertex  4.164598e+01  1.310664e+02  1.000000e+01
    endloop
  endfacet
  facet normal  0.000000e+00  0.000000e+00  1.000000e+00
    outer loop
      vertex  9.577011e+00  8.329005e+01  1.000000e+01
      vertex  4.164598e+01  1.310664e+02  1.000000e+01
      vertex  9.577011e+00  9.834287e+01  1.000000e+01
    endloop
  endfacet
  facet normal  0.000000e+00  0.000000e+00  9.999999e-01
    outer loop
      vertex -1.850000e+02 -1.850000e+02  1.000000e+01
      vertex  1.850000e+02 -1.850000e+02  1.000000e+01
      vertex  1.156011e+02 -1.176323e+02  1.000000e+01
    endloop
  endfacet
  facet normal  0.000000e+00  0.000000e+00  1.000000e+00
    outer loop
      vertex -1.850000e+02 -1.850000e+02  1.000000e+01
      vertex  1.156011e+02 -1.176323e+02  1.000000e+01
      vertex  1.012028e+02 -1.176323e+02  1.000000e+01
    endloop
  endfacet
  facet normal  0.000000e+00  0.000000e+00  1.000000e+00
    outer loop
      vertex -1.850000e+02 -1.850000e+02  1.000000e+01
      vertex  1.012028e+02 -1.176323e+02  1.000000e+01
      vertex -2.772780e+01 -1.176323e+02  1.000000e+01
    endloop
  endfacet
  facet normal  0.000000e+00  0.000000e+00  1.000000e+00
    outer loop
      vertex -1.850000e+02 -1.850000e+02  1.000000e+01
      vertex -2.772780e+01 -1.176323e+02  1.000000e+01
      vertex -1.265528e+02 -1.176323e+02  1.000000e+01
    endloop
  endfacet
  facet normal  0.000000e+00  0.000000e+00  9.999999e-01
    outer loop
      vertex -1.850000e+02 -1.850000e+02  1.000000e+01
      vertex -1.265528e+02 -1.176323e+02  1.000000e+01
      vertex -1.402967e+02 -1.176323e+02  1.000000e+01
    endloop
  endfacet
  facet normal  0.000000e+00  -0.000000e+00  1.000000e+00
    outer loop
      vertex -1.850000e+02 -1.850000e+02  1.000000e+01
      vertex -1.402967e+02 -1.176323e+02  1.000000e+01
      vertex -1.402967e+02 -7.105427e-15  1.000000e+01
    endloop
  endfacet
  facet normal  0.000000e+00  0.000000e+00  1.000000e+00
    outer loop
      vertex -1.850000e+02 -1.850000e+02  1.000000e+01
      vertex -1.402967e+02 -7.105427e-15  1.000000e+01
      vertex -1.850000e+02  1.850000e+02  1.000000e+01
    endloop
  endfacet
  facet normal  0.000000e+00  -0.000000e+00  1.000000e+00
    outer loop
      vertex -1.850000e+02  1.850000e+02  1.000000e+01
      vertex -1.402967e+02 -7.105427e-15  1.000000e+01
      vertex -1.402967e+02  8.329005e+01  1.000000e+01
    endloop
  endfacet
  facet normal  0.000000e+00  -0.000000e+00  9.999999e-01
    outer loop
      vertex -1.850000e+02  1.850000e+02  1.000000e+01
      vertex -1.402967e+02  8.329005e+01  1.000000e+01
      vertex -1.402967e+02  9.834287e+01  1.000000e+01
    endloop
  endfacet
  facet normal  0.000000e+00  -0.000000e+00  1.000000e+00
    outer loop
      vertex -1.850000e+02  1.850000e+02  1.000000e+01
      vertex -1.402967e+02  9.834287e+01  1.000000e+01
      vertex  9.577011e+00  9.834287e+01  1.000000e+01
    endloop
  endfacet
  facet normal  0.000000e+00  -0.000000e+00  1.000000e+00
    outer loop
      vertex -1.850000e+02  1.850000e+02  1.000000e+01
      vertex  9.577011e+00  9.834287e+01  1.000000e+01
      vertex  4.164598e+01  1.310664e+02  1.000000e+01
    endloop
  endfacet
  facet normal  0.000000e+00  -0.000000e+00  1.000000e+00
    outer loop
      vertex -1.850000e+02  1.850000e+02  1.000000e+01
      vertex  4.164598e+01  1.310664e+02  1.000000e+01
      vertex  4.164598e+01  1.572452e+02  1.000000e+01
    endloop
  endfacet
  facet normal  0.000000e+00  -0.000000e+00  9.999999e-01
    outer loop
      vertex -1.850000e+02  1.850000e+02  1.000000e+01
      vertex  4.164598e+01  1.572452e+02  1.000000e+01
      vertex  6.847929e+01  1.572452e+02  1.000000e+01
    endloop
  endfacet
  facet normal  0.000000e+00  -0.000000e+00  1.000000e+00
    outer loop
      vertex -1.850000e+02  1.850000e+02  1.000000e+01
      vertex  6.847929e+01  1.572452e+02  1.000000e+01
      vertex  1.850000e+02  1.850000e+02  1.000000e+01
    endloop
  endfacet
  facet normal  0.000000e+00  -0.000000e+00  1.000000e+00
    outer loop
      vertex -2.772780e+01 -1.176323e+02  1.000000e+01
      vertex  1.012028e+02 -1.176323e+02  1.000000e+01
      vertex  1.012028e+02  9.834287e+01  1.000000e+01
    endloop
  endfacet
  facet normal  0.000000e+00  0.000000e+00  1.000000e+00
    outer loop
      vertex -2.772780e+01 -1.176323e+02  1.000000e+01
      vertex  1.012028e+02  9.834287e+01  1.000000e+01
      vertex  6.847929e+01  1.310664e+02  1.000000e+01
    endloop
  endfacet
  facet normal  0.000000e+00  0.000000e+00  9.999999e-01
    outer loop
      vertex -2.772780e+01 -1.176323e+02  1.000000e+01
      vertex  6.847929e+01  1.310664e+02  1.000000e+01
      vertex  4.164598e+01  1.310664e+02  1.000000e+01
    endloop
  endfacet
  facet normal  0.000000e+00  0.000000e+00  9.999999e-01
    outer loop
      vertex  1.156011e+02 -1.176323e+02  1.000000e+01
      vertex  1.850000e+02 -1.850000e+02  1.000000e+01
      vertex  1.156011e+02  9.834287e+01  1.000000e+01
    endloop
  endfacet
  facet normal  -0.000000e+00  0.000000e+00  1.000000e+00
    outer loop
      vertex  1.156011e+02  9.834287e+01  1.000000e+01
      vertex  1.850000e+02 -1.850000e+02  1.000000e+01
      vertex  1.850000e+02  1.850000e+02  1.000000e+01
    endloop
  endfacet
  facet normal  0.000000e+00  0.000000e+00  1.000000e+00
    outer loop
      vertex  1.156011e+02  9.834287e+01  1.000000e+01
      vertex  1.850000e+02  1.850000e+02  1.000000e+01
      vertex  1.012028e+02  9.834287e+01  1.000000e+01
    endloop
  endfacet
  facet normal  0.000000e+00  -0.000000e+00  1.000000e+00
    outer loop
      vertex  1.012028e+02  9.834287e+01  1.000000e+01
      vertex  1.850000e+02  1.850000e+02  1.000000e+01
      vertex  6.847929e+01  1.572452e+02  1.000000e+01
    endloop
  endfacet
  facet normal  0.000000e+00  0.000000e+00  9.999999e-01
    outer loop
      vertex  1.012028e+02  9.834287e+01  1.000000e+01
      vertex  6.847929e+01  1.572452e+02  1.000000e+01
      vertex  6.847929e+01  1.310664e+02  1.000000e+01
    endloop
  endfacet
  facet normal  0.000000e+00  1.000000e+00  0.000000e+00
    outer loop
      vertex  4.164598e+01  1.572452e+02  2.000000e+01
      vertex  6.847929e+01  1.572452e+02  2.000000e+01
      vertex  4.164598e+01  1.572452e+02  1.000000e+01
    endloop
  endfacet
  facet normal  0.000000e+00  1.000000e+00  0.000000e+00
    outer loop
      vertex  4.164598e+01  1.572452e+02  1.000000e+01
      vertex  6.847929e+01  1.572452e+02  2.000000e+01
      vertex  6.847929e+01  1.572452e+02  1.000000e+01
    endloop
  endfacet
  facet normal  1.000000e+00  0.000000e+00  0.000000e+00
    outer loop
      vertex  6.847929e+01  1.310664e+02  2.000000e+01
      vertex  6.847929e+01  1.310664e+02  1.000000e+01
      vertex  6.847929e+01  1.572452e+02  2.000000e+01
    endloop
  endfacet
  facet normal  1.000000e+00  0.000000e+00  0.000000e+00
    outer loop
      vertex  6.847929e+01  1.572452e+02  2.000000e+01
      vertex  6.847929e+01  1.310664e+02  1.000000e+01
      vertex  6.847929e+01  1.572452e+02  1.000000e+01
    endloop
  endfacet
  facet normal  0.000000e+00 -1.000000e+00  0.000000e+00
    outer loop
      vertex  6.847929e+01  1.310664e+02  2.000000e+01
      vertex  4.164598e+01  1.310664e+02  2.000000e+01
      vertex  6.847929e+01  1.310664e+02  1.000000e+01
    endloop
  endfacet
  facet normal  0.000000e+00 -1.000000e+00  0.000000e+00
    outer loop
      vertex  6.847929e+01  1.310664e+02  1.000000e+01
      vertex  4.164598e+01  1.310664e+02  2.000000e+01
      vertex  4.164598e+01  1.310664e+02  1.000000e+01
    endloop
  endfacet
  facet normal -1.000000e+00  0.000000e+00  0.000000e+00
    outer loop
      vertex  4.164598e+01  1.572452e+02  2.000000e+01
      vertex  4.164598e+01  1.572452e+02  1.000000e+01
      vertex  4.164598e+01  1.310664e+02  2.000000e+01
    endloop
  endfacet
  facet normal -1.000000e+00  0.000000e+00  0.000000e+00
    outer loop
      vertex  4.164598e+01  1.310664e+02  2.000000e+01
      vertex  4.164598e+01  1.572452e+02  1.000000e+01
      vertex  4.164598e+01  1.310664e+02  1.000000e+01
    endloop
  endfacet
  facet normal -5.169890e-16  1.000000e+00  0.000000e+00
    outer loop
      vertex -1.402967e+02 -7.105427e-15  2.000000e+01
      vertex -1.265528e+02  0.000000e+00  2.000000e+01
      vertex -1.402967e+02 -7.105427e-15  1.000000e+01
    endloop
  endfacet
  facet normal -5.169890e-16  1.000000e+00  0.000000e+00
    outer loop
      vertex -1.402967e+02 -7.105427e-15  1.000000e+01
      vertex -1.265528e+02  0.000000e+00  2.000000e+01
      vertex -1.265528e+02  0.000000e+00  1.000000e+01
    endloop
  endfacet
  facet normal  1.000000e+00  0.000000e+00  0.000000e+00
    outer loop
      vertex -1.265528e+02 -9.407137e+01  2.000000e+01
      vertex -1.265528e+02 -9.407137e+01  1.000000e+01
      vertex -1.265528e+02  0.000000e+00  2.000000e+01
    endloop
  endfacet
  facet normal  1.000000e+00  0.000000e+00  0.000000e+00
    outer loop
      vertex -1.265528e+02  0.000000e+00  2.000000e+01
      vertex -1.265528e+02 -9.407137e+01  1.000000e+01
      vertex -1.265528e+02  0.000000e+00  1.000000e+01
    endloop
  endfacet
  facet normal  0.000000e+00  1.000000e+00  0.000000e+00
    outer loop
      vertex -1.265528e+02 -9.407137e+01  2.000000e+01
      vertex -2.772780e+01 -9.407137e+01  2.000000e+01
      vertex -1.265528e+02 -9.407137e+01  1.000000e+01
    endloop
  endfacet
  facet normal  0.000000e+00  1.000000e+00  0.000000e+00
    outer loop
      vertex -1.265528e+02 -9.407137e+01  1.000000e+01
      vertex -2.772780e+01 -9.407137e+01  2.000000e+01
      vertex -2.772780e+01 -9.407137e+01  1.000000e+01
    endloop
  endfacet
  facet normal  1.000000e+00  0.000000e+00  0.000000e+00
    outer loop
      vertex -2.772780e+01 -1.176323e+02  2.000000e+01
      vertex -2.772780e+01 -1.176323e+02  1.000000e+01
      vertex -2.772780e+01 -9.407137e+01  2.000000e+01
    endloop
  endfacet
  facet normal  1.000000e+00  0.000000e+00  0.000000e+00
    outer loop
      vertex -2.772780e+01 -9.407137e+01  2.000000e+01
      vertex -2.772780e+01 -1.176323e+02  1.000000e+01
      vertex -2.772780e+01 -9.407137e+01  1.000000e+01
    endloop
  endfacet
  facet normal  0.000000e+00 -1.000000e+00  0.000000e+00
    outer loop
      vertex -2.772780e+01 -1.176323e+02  2.000000e+01
      vertex -1.265528e+02 -1.176323e+02  2.000000e+01
      vertex -2.772780e+01 -1.176323e+02  1.000000e+01
    endloop
  endfacet
  facet normal  0.000000e+00 -1.000000e+00  0.000000e+00
    outer loop
      vertex -2.772780e+01 -1.176323e+02  1.000000e+01
      vertex -1.265528e+02 -1.176323e+02  2.000000e+01
      vertex -1.265528e+02 -1.176323e+02  1.000000e+01
    endloop
  endfacet
  facet normal  0.000000e+00 -1.000000e+00  0.000000e+00
    outer loop
      vertex -1.265528e+02 -1.176323e+02  2.000000e+01
      vertex -1.402967e+02 -1.176323e+02  2.000000e+01
      vertex -1.265528e+02 -1.176323e+02  1.000000e+01
    endloop
  endfacet
  facet normal  0.000000e+00 -1.000000e+00  0.000000e+00
    outer loop
      vertex -1.265528e+02 -1.176323e+02  1.000000e+01
      vertex -1.402967e+02 -1.176323e+02  2.000000e+01
      vertex -1.402967e+02 -1.176323e+02  1.000000e+01
    endloop
  endfacet
  facet normal -9.999999e-01  0.000000e+00  0.000000e+00
    outer loop
      vertex -1.402967e+02 -7.105427e-15  2.000000e+01
      vertex -1.402967e+02 -7.105427e-15  1.000000e+01
      vertex -1.402967e+02 -1.176323e+02  2.000000e+01
    endloop
  endfacet
  facet normal -9.999999e-01  0.000000e+00  0.000000e+00
    outer loop
      vertex -1.402967e+02 -1.176323e+02  2.000000e+01
      vertex -1.402967e+02 -7.105427e-15  1.000000e+01
      vertex -1.402967e+02 -1.176323e+02  1.000000e+01
    endloop
  endfacet
  facet normal  0.000000e+00  1.000000e+00  0.000000e+00
    outer loop
      vertex  1.012028e+02  9.834287e+01  2.000000e+01
      vertex  1.156011e+02  9.834287e+01  2.000000e+01
      vertex  1.012028e+02  9.834287e+01  1.000000e+01
    endloop
  endfacet
  facet normal  0.000000e+00  1.000000e+00  0.000000e+00
    outer loop
      vertex  1.012028e+02  9.834287e+01  1.000000e+01
      vertex  1.156011e+02  9.834287e+01  2.000000e+01
      vertex  1.156011e+02  9.834287e+01  1.000000e+01
    endloop
  endfacet
  facet normal  1.000000e+00  0.000000e+00  0.000000e+00
    outer loop
      vertex  1.156011e+02 -1.176323e+02  2.000000e+01
      vertex  1.156011e+02 -1.176323e+02  1.000000e+01
      vertex  1.156011e+02  9.834287e+01  2.000000e+01
    endloop
  endfacet
  facet normal  1.000000e+00  0.000000e+00  0.000000e+00
    outer loop
      vertex  1.156011e+02  9.834287e+01  2.000000e+01
      vertex  1.156011e+02 -1.176323e+02  1.000000e+01
      vertex  1.156011e+02  9.834287e+01  1.000000e+01
    endloop
  endfacet
  facet normal  0.000000e+00 -1.000000e+00  0.000000e+00
    outer loop
      vertex  1.156011e+02 -1.176323e+02  2.000000e+01
      vertex  1.012028e+02 -1.176323e+02  2.000000e+01
      vertex  1.156011e+02 -1.176323e+02  1.000000e+01
    endloop
  endfacet
  facet normal  0.000000e+00 -1.000000e+00  0.000000e+00
    outer loop
      vertex  1.156011e+02 -1.176323e+02  1.000000e+01
      vertex  1.012028e+02 -1.176323e+02  2.000000e+01
      vertex  1.012028e+02 -1.176323e+02  1.000000e+01
    endloop
  endfacet
  facet normal -1.000000e+00  0.000000e+00  0.000000e+00
    outer loop
      vertex  1.012028e+02  9.834287e+01  2.000000e+01
      vertex  1.012028e+02  9.834287e+01  1.000000e+01
      vertex  1.012028e+02 -1.176323e+02  2.000000e+01
    endloop
  endfacet
  facet normal -1.000000e+00  0.000000e+00  0.000000e+00
    outer loop
      vertex  1.012028e+02 -1.176323e+02  2.000000e+01
      vertex  1.012028e+02  9.834287e+01  1.000000e+01
      vertex  1.012028e+02 -1.176323e+02  1.000000e+01
    endloop
  endfacet
  facet normal  0.000000e+00  9.999999e-01  0.000000e+00
    outer loop
      vertex -1.402967e+02  9.834287e+01  2.000000e+01
      vertex  9.577011e+00  9.834287e+01  2.000000e+01
      vertex -1.402967e+02  9.834287e+01  1.000000e+01
    endloop
  endfacet
  facet normal  0.000000e+00  9.999999e-01  0.000000e+00
    outer loop
      vertex -1.402967e+02  9.834287e+01  1.000000e+01
      vertex  9.577011e+00  9.834287e+01  2.000000e+01
      vertex  9.577011e+00  9.834287e+01  1.000000e+01
    endloop
  endfacet
  facet normal  1.000000e+00  0.000000e+00  0.000000e+00
    outer loop
      vertex  9.577011e+00  8.329005e+01  2.000000e+01
      vertex  9.577011e+00  8.329005e+01  1.000000e+01
      vertex  9.577011e+00  9.834287e+01  2.000000e+01
    endloop
  endfacet
  facet normal  1.000000e+00  0.000000e+00  0.000000e+00
    outer loop
      vertex  9.577011e+00  9.834287e+01  2.000000e+01
      vertex  9.577011e+00  8.329005e+01  1.000000e+01
      vertex  9.577011e+00  9.834287e+01  1.000000e+01
    endloop
  endfacet
  facet normal  0.000000e+00 -9.999999e-01  0.000000e+00
    outer loop
      vertex  9.577011e+00  8.329005e+01  2.000000e+01
      vertex -1.402967e+02  8.329005e+01  2.000000e+01
      vertex  9.577011e+00  8.329005e+01  1.000000e+01
    endloop
  endfacet
  facet normal  0.000000e+00 -9.999999e-01  0.000000e+00
    outer loop
      vertex  9.577011e+00  8.329005e+01  1.000000e+01
      vertex -1.402967e+02  8.329005e+01  2.000000e+01
      vertex -1.402967e+02  8.329005e+01  1.000000e+01
    endloop
  endfacet
  facet normal -1.000000e+00  0.000000e+00  0.000000e+00
    outer loop
      vertex -1.402967e+02  9.834287e+01  2.000000e+01
      vertex -1.402967e+02  9.834287e+01  1.000000e+01
      vertex -1.402967e+02  8.329005e+01  2.000000e+01
    endloop
  endfacet
  facet normal -1.000000e+00  0.000000e+00  0.000000e+00
    outer loop
      vertex -1.402967e+02  8.329005e+01  2.000000e+01
      vertex -1.402967e+02  9.834287e+01  1.000000e+01
      vertex -1.402967e+02  8.329005e+01  1.000000e+01
    endloop
  endfacet
  facet normal  0.000000e+00 -1.000000e+00  0.000000e+00
    outer loop
      vertex -1.850000e+02  1.850000e+02  2.000000e+01
      vertex -1.850000e+02  1.850000e+02  1.000000e+01
      vertex  1.850000e+02  1.850000e+02  2.000000e+01
    endloop
  endfacet
  facet normal  0.000000e+00 -1.000000e+00  -0.000000e+00
    outer loop
      vertex  1.850000e+02  1.850000e+02  2.000000e+01
      vertex -1.850000e+02  1.850000e+02  1.000000e+01
      vertex  1.850000e+02  1.850000e+02  1.000000e+01
    endloop
  endfacet
  facet normal  1.000000e+00  0.000000e+00  0.000000e+00
    outer loop
      vertex -1.850000e+02 -1.850000e+02  2.000000e+01
      vertex -1.850000e+02 -1.850000e+02  1.000000e+01
      vertex -1.850000e+02  1.850000e+02  2.000000e+01
    endloop
  endfacet
  facet normal  1.000000e+00  0.000000e+00  0.000000e+00
    outer loop
      vertex -1.850000e+02  1.850000e+02  2.000000e+01
      vertex -1.850000e+02 -1.850000e+02  1.000000e+01
      vertex -1.850000e+02  1.850000e+02  1.000000e+01
    endloop
  endfacet
  facet normal  0.000000e+00  1.000000e+00  -0.000000e+00
    outer loop
      vertex  1.850000e+02 -1.850000e+02  2.000000e+01
      vertex  1.850000e+02 -1.850000e+02  1.000000e+01
      vertex -1.850000e+02 -1.850000e+02  2.000000e+01
    endloop
  endfacet
  facet normal  0.000000e+00  1.000000e+00  0.000000e+00
    outer loop
      vertex -1.850000e+02 -1.850000e+02  2.000000e+01
      vertex  1.850000e+02 -1.850000e+02  1.000000e+01
      vertex -1.850000e+02 -1.850000e+02  1.000000e+01
    endloop
  endfacet
  facet normal -1.000000e+00  0.000000e+00  0.000000e+00
    outer loop
      vertex  1.850000e+02  1.850000e+02  2.000000e+01
      vertex  1.850000e+02  1.850000e+02  1.000000e+01
      vertex  1.850000e+02 -1.850000e+02  2.000000e+01
    endloop
  endfacet
  facet normal -1.000000e+00  0.000000e+00  0.000000e+00
    outer loop
      vertex  1.850000e+02 -1.850000e+02  2.000000e+01
      vertex  1.850000e+02  1.850000e+02  1.000000e+01
      vertex  1.850000e+02 -1.850000e+02  1.000000e+01
    endloop
  endfacet
  facet normal  0.000000e+00  0.000000e+00  1.000000e+00
    outer loop
      vertex  4.164598e+01  1.310664e+02  2.000000e+01
      vertex  6.847929e+01  1.310664e+02  2.000000e+01
      vertex  4.164598e+01  1.572452e+02  2.000000e+01
    endloop
  endfacet
  facet normal  -0.000000e+00  0.000000e+00  1.000000e+00
    outer loop
      vertex  4.164598e+01  1.572452e+02  2.000000e+01
      vertex  6.847929e+01  1.310664e+02  2.000000e+01
      vertex  6.847929e+01  1.572452e+02  2.000000e+01
    endloop
  endfacet
  facet normal  0.000000e+00  0.000000e+00  1.000000e+00
    outer loop
      vertex -2.772780e+01 -9.407137e+01  2.000000e+01
      vertex -1.265528e+02 -1.176323e+02  2.000000e+01
      vertex -2.772780e+01 -1.176323e+02  2.000000e+01
    endloop
  endfacet
  facet normal  0.000000e+00  -0.000000e+00  1.000000e+00
    outer loop
      vertex -1.402967e+02 -1.176323e+02  2.000000e+01
      vertex -1.265528e+02 -1.176323e+02  2.000000e+01
      vertex -2.772780e+01 -9.407137e+01  2.000000e+01
    endloop
  endfacet
  facet normal  0.000000e+00  0.000000e+00  1.000000e+00
    outer loop
      vertex -1.402967e+02 -1.176323e+02  2.000000e+01
      vertex -2.772780e+01 -9.407137e+01  2.000000e+01
      vertex -1.265528e+02 -9.407137e+01  2.000000e+01
    endloop
  endfacet
  facet normal  0.000000e+00  -0.000000e+00  1.000000e+00
    outer loop
      vertex -1.402967e+02 -1.176323e+02  2.000000e+01
      vertex -1.265528e+02 -9.407137e+01  2.000000e+01
      vertex -1.265528e+02  0.000000e+00  2.000000e+01
    endloop
  endfacet
  facet normal  0.000000e+00  0.000000e+00  9.999999e-01
    outer loop
      vertex -1.402967e+02 -1.176323e+02  2.000000e+01
      vertex -1.265528e+02  0.000000e+00  2.000000e+01
      vertex -1.402967e+02 -7.105427e-15  2.000000e+01
    endloop
  endfacet
  facet normal  0.000000e+00  0.000000e+00  1.000000e+00
    outer loop
      vertex  1.012028e+02 -1.176323e+02  2.000000e+01
      vertex  1.156011e+02 -1.176323e+02  2.000000e+01
      vertex  1.012028e+02  9.834287e+01  2.000000e+01
    endloop
  endfacet
  facet normal  -0.000000e+00  0.000000e+00  1.000000e+00
    outer loop
      vertex  1.012028e+02  9.834287e+01  2.000000e+01
      vertex  1.156011e+02 -1.176323e+02  2.000000e+01
      vertex  1.156011e+02  9.834287e+01  2.000000e+01
    endloop
  endfacet
  facet normal  0.000000e+00  0.000000e+00  1.000000e+00
    outer loop
      vertex -1.402967e+02  8.329005e+01  2.000000e+01
      vertex  9.577011e+00  8.329005e+01  2.000000e+01
      vertex -1.402967e+02  9.834287e+01  2.000000e+01
    endloop
  endfacet
  facet normal  -0.000000e+00  0.000000e+00  1.000000e+00
    outer loop
      vertex -1.402967e+02  9.834287e+01  2.000000e+01
      vertex  9.577011e+00  8.329005e+01  2.000000e+01
      vertex  9.577011e+00  9.834287e+01  2.000000e+01
    endloop
  endfacet
endsolid CATIA STL
