solid CATIA STL
  facet normal  0.000000e+00  0.000000e+00 -1.000000e+00
    outer loop
      vertex  1.000000e+02  5.000000e+01  0.000000e+00
      vertex  1.000000e+02 -5.000000e+01  0.000000e+00
      vertex -1.000000e+02  5.000000e+01  0.000000e+00
    endloop
  endfacet
  facet normal  0.000000e+00  0.000000e+00 -1.000000e+00
    outer loop
      vertex -1.000000e+02  5.000000e+01  0.000000e+00
      vertex  1.000000e+02 -5.000000e+01  0.000000e+00
      vertex -1.000000e+02 -5.000000e+01  0.000000e+00
    endloop
  endfacet
  facet normal  -0.000000e+00  0.000000e+00 -1.000000e+00
    outer loop
      vertex -2.000000e+01  1.500000e+01  0.000000e+00
      vertex  3.945119e+01  1.500000e+01  0.000000e+00
      vertex -2.000000e+01 -1.500000e+01  0.000000e+00
    endloop
  endfacet
  facet normal  0.000000e+00  0.000000e+00 -1.000000e+00
    outer loop
      vertex -2.000000e+01 -1.500000e+01  0.000000e+00
      vertex  3.945119e+01  1.500000e+01  0.000000e+00
      vertex  3.945119e+01 -1.500000e+01  0.000000e+00
    endloop
  endfacet
  facet normal  0.000000e+00  0.000000e+00  1.000000e+00
    outer loop
      vertex  6.745546e+01  3.393502e+01  0.000000e+00
      vertex  6.745546e+01 -2.136044e+01  0.000000e+00
      vertex  7.790300e+01  3.393502e+01  0.000000e+00
    endloop
  endfacet
  facet normal  0.000000e+00  0.000000e+00  1.000000e+00
    outer loop
      vertex  7.790300e+01  3.393502e+01  0.000000e+00
      vertex  6.745546e+01 -2.136044e+01  0.000000e+00
      vertex  7.790300e+01 -2.136044e+01  0.000000e+00
    endloop
  endfacet
  facet normal  -0.000000e+00  0.000000e+00  1.000000e+00
    outer loop
      vertex -4.301156e+01  3.984689e+01  0.000000e+00
      vertex -7.917365e+01  3.984689e+01  0.000000e+00
      vertex -4.301156e+01  0.000000e+00  0.000000e+00
    endloop
  endfacet
  facet normal  0.000000e+00  0.000000e+00  1.000000e+00
    outer loop
      vertex -4.301156e+01  0.000000e+00  0.000000e+00
      vertex -7.917365e+01  3.984689e+01  0.000000e+00
      vertex -7.917365e+01  0.000000e+00  0.000000e+00
    endloop
  endfacet
  facet normal  -0.000000e+00  0.000000e+00 -1.000000e+00
    outer loop
      vertex -8.066235e+01 -5.115057e+00  0.000000e+00
      vertex -4.331383e+01 -5.115057e+00  0.000000e+00
      vertex -8.066235e+01 -1.203145e+01  0.000000e+00
    endloop
  endfacet
  facet normal  0.000000e+00  0.000000e+00 -1.000000e+00
    outer loop
      vertex -8.066235e+01 -1.203145e+01  0.000000e+00
      vertex -4.331383e+01 -5.115057e+00  0.000000e+00
      vertex -4.331383e+01 -1.203145e+01  0.000000e+00
    endloop
  endfacet
  facet normal  0.000000e+00  0.000000e+00  1.000000e+00
    outer loop
      vertex -8.066235e+01 -1.203145e+01  0.000000e+00
      vertex -8.066235e+01 -3.218463e+01  0.000000e+00
      vertex -6.569313e+01 -1.203145e+01  0.000000e+00
    endloop
  endfacet
  facet normal  0.000000e+00  0.000000e+00  1.000000e+00
    outer loop
      vertex -6.569313e+01 -1.203145e+01  0.000000e+00
      vertex -8.066235e+01 -3.218463e+01  0.000000e+00
      vertex -6.569313e+01 -3.218463e+01  0.000000e+00
    endloop
  endfacet
endsolid CATIA STL
